<?xml version="1.0" standalone="no"?><!DOCTYPE svg PUBLIC "-//W3C//DTD SVG 1.1//EN" "http://www.w3.org/Graphics/SVG/1.1/DTD/svg11.dtd"><svg t="1634966077519" class="icon" viewBox="0 0 1024 1024" version="1.1" xmlns="http://www.w3.org/2000/svg" p-id="5649" xmlns:xlink="http://www.w3.org/1999/xlink" width="200" height="200"><defs><style type="text/css"></style></defs><path d="M768 947.2H256a102.4 102.4 0 0 1-102.4-102.4v-358.4a102.4 102.4 0 0 1 102.4-102.4v-51.2a256 256 0 0 1 506.88-51.2h-106.496A153.6 153.6 0 0 0 358.4 332.8v51.2h409.6a102.4 102.4 0 0 1 102.4 102.4v358.4a102.4 102.4 0 0 1-102.4 102.4z m0-460.8H256v358.4h512z m-256 51.2a102.4 102.4 0 0 1 102.4 102.4 102.4 102.4 0 0 1-51.2 88.064v65.536H460.8v-65.536a102.4 102.4 0 0 1-51.2-88.064 102.4 102.4 0 0 1 102.4-102.4z" fill="" p-id="5650"></path></svg>